<svg width="201" height="59" viewBox="0 0 201 59" fill="none" xmlns="http://www.w3.org/2000/svg">
    <path d="M196.133 0.819336H4.10195C2.28955 0.819336 0.820312 2.28685 0.820312 4.09711V54.9027C0.820312 56.7129 2.28955 58.1805 4.10195 58.1805H196.133C197.946 58.1805 199.415 56.7129 199.415 54.9027V4.09711C199.415 2.28685 197.946 0.819336 196.133 0.819336Z" />
    <path fill-rule="evenodd" clip-rule="evenodd" d="M4.10195 0.819336H196.133C197.946 0.819336 199.415 2.28685 199.415 4.09711V54.9027C199.415 56.7129 197.946 58.1805 196.133 58.1805H4.10195C2.28955 58.1805 0.820312 56.7129 0.820312 54.9027V4.09711C0.820312 2.28685 2.28955 0.819336 4.10195 0.819336ZM51.3199 21.273C51.1449 21.3718 47.3859 23.5835 47.4239 28.1209C47.4676 33.3152 51.7799 35.1902 52.2138 35.3789C52.2254 35.3839 52.2342 35.3878 52.2401 35.3904C52.2444 35.3924 52.2471 35.3937 52.2483 35.3944C52.2178 35.516 51.5101 37.9861 49.7372 40.4942C48.261 42.6982 46.7087 44.8567 44.2509 44.8948C43.0818 44.9208 42.2917 44.5847 41.4686 44.2347C40.6096 43.8693 39.7147 43.4887 38.3157 43.4887C36.8358 43.4887 35.9019 43.8814 35.0016 44.2601C34.2215 44.5881 33.4665 44.9056 32.4033 44.9479C30.0597 45.0316 28.2714 42.5919 26.742 40.403C23.6755 35.934 21.2938 27.8169 24.4897 22.2915C26.0343 19.5857 28.8574 17.8376 31.8783 17.7921C33.2113 17.7662 34.4881 18.2778 35.606 18.7257C36.4599 19.0679 37.2211 19.3729 37.8439 19.3729C38.3938 19.3729 39.1354 19.0793 39.9997 18.7371C41.3601 18.1984 43.0243 17.5394 44.7227 17.716C45.8869 17.7464 49.1893 18.172 51.3199 21.273ZM44.7531 9.01367C44.989 11.1418 44.1444 13.2318 42.9117 14.7747C41.6257 16.2871 39.5636 17.4424 37.57 17.298C37.3036 15.2535 38.3233 13.0798 39.457 11.7498C40.7354 10.2449 42.9726 9.08963 44.7531 9.01367ZM80.6152 44.6214H77.4117L75.654 39.1188H69.5589L67.8849 44.6214H64.7651L70.8069 25.879H74.5354L80.6152 44.6214ZM75.1289 36.8083L73.5386 31.9137C73.3712 31.4121 73.0516 30.234 72.595 28.3795H72.5418C72.3592 29.1776 72.0548 30.3556 71.6515 31.9137L70.0916 36.8083H75.1289ZM96.1233 37.6975C96.1233 39.9929 95.4989 41.8093 94.2511 43.147C93.1321 44.3326 91.7398 44.9254 90.081 44.9254C88.2851 44.9254 86.9995 44.287 86.216 43.0101V50.1013H83.2101V35.5466C83.2101 34.1026 83.1723 32.6205 83.096 31.108H85.7435L85.9117 33.2514H85.9642C86.9692 31.6401 88.491 30.8268 90.5297 30.8268C92.1279 30.8268 93.4594 31.4577 94.5251 32.7193C95.59 33.981 96.1233 35.6455 96.1233 37.6975ZM93.064 37.8115C93.064 36.4967 92.767 35.4099 92.1738 34.5586C91.5265 33.6694 90.652 33.2285 89.5559 33.2285C88.8184 33.2285 88.1407 33.4793 87.5393 33.9658C86.9388 34.4598 86.5425 35.1059 86.3604 35.8962C86.2767 36.1927 86.2308 36.5042 86.2234 36.8083V39.0656C86.2234 40.046 86.5278 40.8744 87.1291 41.5585C87.7297 42.2349 88.514 42.5769 89.4796 42.5769C90.6134 42.5769 91.4962 42.1361 92.1279 41.2697C92.744 40.3881 93.064 39.2404 93.064 37.8115ZM111.691 37.6975C111.691 39.9929 111.068 41.8093 109.819 43.147C108.701 44.3326 107.309 44.9254 105.65 44.9254C103.854 44.9254 102.568 44.287 101.784 43.0101V50.1013H98.7781V35.5466C98.7781 34.1026 98.7404 32.6205 98.6641 31.108H101.312L101.48 33.2514H101.533C102.537 31.6401 104.059 30.8268 106.099 30.8268C107.697 30.8268 109.028 31.4577 110.093 32.7193C111.152 33.981 111.691 35.6455 111.691 37.6975ZM108.625 37.8115C108.625 36.4967 108.328 35.4099 107.735 34.5586C107.088 33.6694 106.213 33.2285 105.117 33.2285C104.379 33.2285 103.701 33.4793 103.093 33.9658C102.492 34.4598 102.096 35.1059 101.914 35.8962C101.822 36.2687 101.769 36.5727 101.769 36.8083V39.0656C101.769 40.046 102.074 40.8744 102.674 41.5585C103.276 42.2349 104.059 42.5769 105.034 42.5769C106.167 42.5769 107.049 42.1361 107.681 41.2697C108.313 40.3881 108.625 39.2404 108.625 37.8115ZM129.094 39.3696C129.094 40.9657 128.538 42.2653 127.428 43.261C126.21 44.3554 124.498 44.9026 122.314 44.9026C120.297 44.9026 118.677 44.515 117.451 43.7322L118.144 41.2317C119.461 42.0145 120.914 42.4021 122.489 42.4021C123.623 42.4021 124.505 42.1437 125.137 41.6345C125.769 41.1253 126.088 40.4413 126.088 39.59C126.088 38.83 125.822 38.1916 125.304 37.6671C124.787 37.1503 123.927 36.6639 122.718 36.2231C119.43 34.9994 117.786 33.2057 117.786 30.8573C117.786 29.322 118.365 28.0604 119.529 27.0799C120.685 26.0994 122.223 25.6055 124.14 25.6055C125.845 25.6055 127.268 25.9019 128.401 26.4946L127.648 28.942C126.583 28.3644 125.388 28.0831 124.041 28.0831C122.983 28.0831 122.147 28.3415 121.553 28.8583C121.051 29.322 120.8 29.8844 120.8 30.5533C120.8 31.2904 121.089 31.9061 121.667 32.3849C122.17 32.8258 123.075 33.3122 124.391 33.829C126.004 34.4826 127.191 35.235 127.953 36.1091C128.713 36.9831 129.094 38.07 129.094 39.3696ZM139.062 33.3654H135.744V39.9244C135.744 41.5965 136.33 42.4249 137.502 42.4249C138.042 42.4249 138.483 42.3793 138.841 42.2881L138.925 44.5682C138.332 44.7887 137.556 44.9026 136.589 44.9026C135.402 44.9026 134.473 44.5378 133.804 43.8158C133.134 43.0937 132.8 41.8777 132.8 40.1753V33.3654H130.829V31.1157H132.8V28.638L135.752 27.7487V31.1157H139.069L139.062 33.3654ZM153.983 37.7583C153.983 39.8332 153.39 41.5433 152.203 42.8734C150.963 44.249 149.312 44.933 147.249 44.933C145.263 44.933 143.681 44.2718 142.501 42.9646C141.322 41.6497 140.736 39.9852 140.736 37.9864C140.736 35.8887 141.345 34.1786 142.562 32.8409C143.78 31.5033 145.416 30.842 147.478 30.842C149.464 30.842 151.062 31.5033 152.264 32.8181C153.405 34.0874 153.983 35.7367 153.983 37.7583ZM150.864 37.8267C150.864 36.5879 150.598 35.5239 150.057 34.6422C149.426 33.5706 148.528 33.0309 147.356 33.0309C146.153 33.0309 145.226 33.5706 144.601 34.6422C144.061 35.5314 143.795 36.6107 143.795 37.8875C143.795 39.1264 144.061 40.1904 144.601 41.0797C145.248 42.1513 146.162 42.691 147.333 42.691C148.483 42.691 149.38 42.1437 150.035 41.0569C150.59 40.1372 150.864 39.0656 150.864 37.8267ZM163.762 33.753C163.449 33.6998 163.13 33.6694 162.81 33.6694C161.753 33.6694 160.939 34.0646 160.36 34.8627C159.858 35.5694 159.607 36.4587 159.607 37.5304V44.6214H156.601V35.3642C156.601 33.943 156.578 32.5293 156.518 31.108H159.136L159.241 33.6922H159.325C159.645 32.8029 160.14 32.0885 160.832 31.5489C161.456 31.0776 162.224 30.8268 163.008 30.8268C163.29 30.8268 163.533 30.8497 163.762 30.8801V33.753ZM177.207 37.2263C177.215 37.6824 177.176 38.1384 177.101 38.5868H168.076C168.107 39.9244 168.548 40.9428 169.385 41.6497C170.145 42.2805 171.127 42.5921 172.338 42.5921C173.676 42.5921 174.894 42.3793 175.99 41.9537L176.462 44.0362C175.183 44.591 173.669 44.8722 171.927 44.8722C169.826 44.8722 168.182 44.2566 166.98 43.0254C165.786 41.7941 165.184 40.1372 165.184 38.0623C165.184 36.0254 165.74 34.3306 166.859 32.9778C168.023 31.5337 169.606 30.8116 171.592 30.8116C173.539 30.8116 175.015 31.5337 176.02 32.9778C176.804 34.1254 177.207 35.539 177.207 37.2263ZM174.339 36.4511C174.361 35.5619 174.164 34.7942 173.753 34.1406C173.235 33.3046 172.429 32.8866 171.356 32.8866C170.374 32.8866 169.575 33.2969 168.958 34.1102C168.456 34.7562 168.16 35.539 168.068 36.4435L174.339 36.4511ZM66.5303 19.1525C67.1315 19.2209 67.8543 19.259 68.6913 19.259C72.2373 19.259 74.1091 17.5336 74.1168 14.3491C74.1168 11.5902 72.5264 9.89532 69.0794 9.89532C68.2272 9.8877 67.375 9.95613 66.5303 10.0854V19.1525ZM68.0141 11.1569C68.3413 11.0886 68.737 11.0582 69.2011 11.0582C71.385 11.0582 72.5492 12.2439 72.5568 14.3947C72.5568 16.7964 71.2708 18.0808 69.0109 18.0808C68.5316 18.0808 68.1891 18.0733 68.0141 18.0429V11.1569ZM75.8592 15.9072C75.8592 17.8756 77.1224 19.3273 79.0628 19.3273C81.0488 19.3273 82.373 17.8756 82.373 15.8007C82.373 13.7791 81.0868 12.3959 79.1693 12.3959C77.1452 12.3959 75.8592 13.855 75.8592 15.9072ZM77.3659 15.8692C77.3659 14.4707 78.0507 13.4751 79.116 13.4751C80.1585 13.4751 80.8433 14.4859 80.8357 15.8388C80.8357 17.1688 80.1433 18.2328 79.1008 18.2328C78.0659 18.2328 77.3659 17.2372 77.3659 15.8692ZM91.3745 19.1753L93.4518 12.5326H92.0062L91.1998 15.6336C90.9939 16.4164 90.8495 17.1384 90.7502 17.8225H90.7125C90.5755 17.1232 90.4007 16.386 90.18 15.6336L89.2743 12.5326H88.0724L87.1289 15.702C86.8697 16.5684 86.6875 17.26 86.5809 17.8225H86.5505C86.4283 17.146 86.2765 16.4392 86.1009 15.6867L85.3478 12.5326H83.826L85.7818 19.1753H87.1511L88.0642 16.2948C88.2849 15.6032 88.4908 14.8735 88.5974 14.1515H88.6278C88.7648 14.8735 88.9469 15.5879 89.1602 16.2948L90.02 19.1753H91.3745ZM99.6385 19.1753H101.114L101.122 15.2003C101.122 13.4599 100.201 12.3959 98.8091 12.3959C97.9033 12.3959 97.0969 12.8519 96.7006 13.5587H96.6629L96.5948 12.5326H95.2936C95.3314 13.2167 95.3469 13.8475 95.3469 14.4327V19.1753H96.8229V15.2231C96.8229 14.3491 97.4242 13.5967 98.2988 13.5967C99.1889 13.5967 99.6385 14.1819 99.6385 15.36V19.1753ZM103.709 19.1753H105.185V9.48486H103.709V19.1753ZM107.377 15.9072C107.377 17.8756 108.64 19.3273 110.58 19.3273C112.559 19.3273 113.891 17.8756 113.891 15.8007C113.891 13.7791 112.604 12.3959 110.687 12.3959C108.663 12.3959 107.377 13.855 107.377 15.9072ZM108.884 15.8692C108.884 14.4707 109.568 13.4751 110.634 13.4751C111.676 13.4751 112.353 14.4859 112.353 15.8388C112.353 17.1688 111.661 18.2328 110.618 18.2328C109.583 18.2328 108.884 17.2372 108.884 15.8692ZM119.612 18.4076L119.719 19.1753L121.066 19.1677C120.997 18.7724 120.967 18.2481 120.967 17.5793V15.1319C120.967 13.3003 120.084 12.3882 118.35 12.3882C117.451 12.3882 116.683 12.5858 116.066 12.9659L116.363 13.9387C116.865 13.6119 117.444 13.4447 118.099 13.4447C119.012 13.4447 119.475 13.8854 119.475 14.7595V14.8812C117.01 14.8812 115.587 15.7248 115.587 17.3664C115.587 18.4837 116.431 19.3197 117.627 19.3197C118.464 19.3197 119.126 19.0233 119.574 18.4076H119.612ZM117.048 17.2068C117.048 16.2644 117.87 15.8692 119.514 15.8692V16.8952C119.514 17.678 118.814 18.2481 118.06 18.2481C117.474 18.2481 117.048 17.906 117.048 17.2068ZM128.059 18.1112L128.127 19.1753V19.1677H129.436C129.398 18.6281 129.382 18.02 129.382 17.3816V9.48486H127.906V13.3003H127.876C127.526 12.6923 126.895 12.3959 126.004 12.3959C124.323 12.3959 123.09 13.8627 123.09 15.9376C123.09 17.9213 124.277 19.3273 125.883 19.3273C126.879 19.3273 127.595 18.9169 128.021 18.1112H128.059ZM126.354 13.5435C127.298 13.5435 127.914 14.3415 127.914 15.2687V16.3708C127.914 17.3284 127.252 18.1341 126.324 18.1341C125.281 18.1341 124.589 17.2144 124.589 15.8768C124.589 14.5163 125.258 13.5435 126.354 13.5435ZM135.569 15.9072C135.569 17.8756 136.833 19.3273 138.773 19.3273C140.759 19.3273 142.082 17.8756 142.082 15.8007C142.082 13.7791 140.797 12.3959 138.879 12.3959C136.855 12.3959 135.569 13.855 135.569 15.9072ZM137.075 15.8692C137.075 14.4707 137.76 13.4751 138.826 13.4751C139.868 13.4751 140.553 14.4859 140.546 15.8388C140.546 17.1688 139.853 18.2328 138.811 18.2328C137.776 18.2328 137.075 17.2372 137.075 15.8692ZM148.558 19.1753H150.035H150.042V15.2003C150.042 13.4599 149.121 12.3959 147.728 12.3959C146.823 12.3959 146.017 12.8519 145.621 13.5587H145.583L145.514 12.5326H144.213C144.251 13.2167 144.266 13.8475 144.266 14.4327V19.1753H145.743V15.2231C145.743 14.3491 146.344 13.5967 147.219 13.5967C148.109 13.5967 148.558 14.1819 148.558 15.36V19.1753ZM158.344 13.6422H159.972L159.965 12.525H158.336V10.8682L156.882 11.3089V12.525H155.909V13.6347H156.882V16.9864C156.882 18.6737 157.582 19.3121 158.747 19.3121C159.226 19.3121 159.607 19.2513 159.896 19.1449L159.858 18.0277C159.683 18.0657 159.462 18.0961 159.203 18.0961C158.625 18.0961 158.344 17.6856 158.344 16.8648V13.6422ZM166.325 19.1753H167.802L167.81 15.2231C167.81 13.4902 166.95 12.3959 165.542 12.3959C164.682 12.3959 164.005 12.7531 163.541 13.4751H163.511V9.48486H162.034V19.1829H163.511V15.1775C163.511 14.1211 164.218 13.6043 164.986 13.6043C165.877 13.6043 166.325 14.2047 166.325 15.3904V19.1753ZM171.378 16.2112H175.814C175.86 15.9908 175.875 15.7628 175.86 15.55C175.86 13.6499 174.794 12.3959 173.098 12.3959C171.218 12.3959 169.956 13.9235 169.956 15.9604C169.956 17.9896 171.188 19.3045 173.265 19.3045C174.125 19.3045 174.863 19.1677 175.495 18.8941L175.266 17.868C174.734 18.0733 174.125 18.1797 173.471 18.1797C172.238 18.1797 171.409 17.4653 171.378 16.2112ZM172.999 13.4066C173.943 13.4066 174.46 14.1287 174.46 15.1548H171.386C171.478 14.1439 172.147 13.4066 172.999 13.4066Z" fill="white"/>
</svg>