<svg width="201" height="59" viewBox="0 0 201 59" fill="none" xmlns="http://www.w3.org/2000/svg">
    <path d="M196.133 0.819336H4.10195C2.28955 0.819336 0.820312 2.28685 0.820312 4.09711V54.9027C0.820312 56.7129 2.28955 58.1805 4.10195 58.1805H196.133C197.946 58.1805 199.415 56.7129 199.415 54.9027V4.09711C199.415 2.28685 197.946 0.819336 196.133 0.819336Z" />
    <path fill-rule="evenodd" clip-rule="evenodd" d="M196.133 0.819336H4.10195C2.28955 0.819336 0.820312 2.28685 0.820312 4.09711V54.9027C0.820312 56.7129 2.28955 58.1805 4.10195 58.1805H196.133C197.946 58.1805 199.415 56.7129 199.415 54.9027V4.09711C199.415 2.28685 197.946 0.819336 196.133 0.819336ZM71.8813 15.4511C71.8813 16.5801 71.5988 17.568 70.8923 18.2737C70.0445 19.1204 69.0555 19.5438 67.7839 19.5438C66.5123 19.5438 65.5232 19.1204 64.6754 18.2737C63.8277 17.4269 63.4038 16.439 63.4038 15.1689C63.4038 13.8987 63.8277 12.9109 64.6754 12.0641C65.5232 11.2174 66.5123 10.7939 67.7839 10.7939C68.3491 10.7939 68.9142 10.9351 69.4793 11.2174C70.0445 11.4996 70.4684 11.7819 70.751 12.2052L70.0445 12.9108C69.4793 12.2052 68.7729 11.923 67.7839 11.923C66.9361 11.923 66.0883 12.2052 65.5232 12.9108C64.8167 13.4753 64.5342 14.3221 64.5342 15.31C64.5342 16.2979 64.8167 17.1446 65.5232 17.7092C66.2296 18.2737 66.9361 18.697 67.7839 18.697C68.7729 18.697 69.4793 18.4148 70.1859 17.7092C70.6097 17.2857 70.8923 16.7212 70.8923 16.0156H67.7839V15.0278H71.8813V15.4511ZM74.5664 11.923H78.3813V10.7939H73.436V19.2615H78.3813V18.2737H74.5664V15.5923H78.0987V14.6044H74.5664V11.923ZM83.0444 19.2615H81.9137V11.7819H79.5117V10.7939H85.4457V11.7819H83.0444V19.2615ZM89.5435 10.7939V19.2615H90.6732V10.7939H89.5435ZM95.3365 19.2615H94.348V11.7819H91.9458V10.7939H97.7387V11.7819H95.3365V19.2615ZM105.792 19.5438C107.063 19.5438 108.053 19.1204 108.9 18.2737C109.748 17.4269 110.172 16.2979 110.172 15.1689C110.172 13.8987 109.748 12.9109 108.9 12.0641C108.053 11.2174 107.063 10.7939 105.792 10.7939C104.52 10.7939 103.532 11.2174 102.683 12.0641C101.836 12.9109 101.412 13.8987 101.412 15.1689C101.412 16.439 101.836 17.4269 102.683 18.2737C103.532 19.1204 104.52 19.5438 105.792 19.5438ZM105.792 18.5559C104.944 18.5559 104.097 18.1326 103.532 17.568C102.825 16.8624 102.542 16.0156 102.542 15.1689C102.542 14.181 102.966 13.3342 103.532 12.7697C104.097 12.0641 104.944 11.7819 105.792 11.7819C106.64 11.7819 107.488 12.2052 108.053 12.7697C108.759 13.3342 109.041 14.181 109.041 15.1689C109.041 16.1568 108.618 17.0035 108.053 17.568C107.488 18.2737 106.64 18.5559 105.792 18.5559ZM111.727 19.2615V10.7939H112.998L117.095 17.4269V15.7334V10.7939H118.226V19.2615H117.095L112.715 12.3464V14.0398V19.2615H111.727ZM95.0533 37.7492C95.0533 34.221 97.7376 31.6808 101.128 31.6808C104.519 31.6808 107.204 34.221 107.204 37.7492C107.204 41.2774 104.519 43.8176 101.128 43.8176C97.7376 43.8176 95.0533 41.1362 95.0533 37.7492ZM97.7376 37.6081C97.7376 39.725 99.2915 41.2774 101.128 41.2774C102.965 41.2774 104.519 39.8661 104.519 37.6081C104.519 35.3501 102.965 33.9388 101.128 33.9388C99.2915 33.9388 97.7376 35.4912 97.7376 37.6081ZM81.9127 37.7492C81.9127 34.221 84.5972 31.6808 87.9879 31.6808C91.3795 31.6808 94.0639 34.221 94.0639 37.7492C94.0639 41.2774 91.3795 43.8176 87.9879 43.8176C84.5972 43.8176 81.9127 41.1362 81.9127 37.7492ZM84.5972 37.6081C84.5972 39.725 86.1518 41.2774 87.9879 41.2774C89.8248 41.2774 91.3795 39.8661 91.3795 37.6081C91.3795 35.3501 89.8248 33.9388 87.9879 33.9388C86.1518 33.9388 84.5972 35.4912 84.5972 37.6081ZM72.3048 36.0557V33.5154H81.0649C81.2062 33.9388 81.2062 34.5033 81.2062 35.0678V35.0679C81.2062 36.9024 80.6411 39.3016 78.9455 40.9951C77.25 42.8298 75.2719 43.6765 72.4461 43.6765C67.3596 43.6765 62.9795 39.4427 62.9795 34.3622C62.9795 29.2817 67.3596 25.0479 72.4461 25.0479C75.2719 25.0479 77.25 26.1769 78.8043 27.5881L76.9675 29.4228C75.8371 28.4349 74.2829 27.5881 72.3048 27.5881C68.6312 27.5881 65.664 30.5518 65.664 34.3622C65.664 38.1726 68.4899 41.1362 72.3048 41.1362C74.7067 41.1362 76.1197 40.1483 76.9675 39.3016C77.6739 38.596 78.2391 37.467 78.3804 36.0557H72.3048ZM131.365 31.6808C134.473 31.6808 135.887 34.0799 136.452 35.4912L136.734 36.1968L128.68 39.5839C129.387 40.854 130.235 41.4185 131.648 41.4185C133.06 41.4185 133.909 40.7128 134.615 39.725L136.593 41.1362C136.028 42.1242 134.332 43.8176 131.648 43.8176C128.257 43.8176 125.714 41.1362 125.714 37.7492C125.714 34.0799 128.257 31.6808 131.365 31.6808ZM131.365 33.9388C130.094 33.9388 128.257 35.209 128.257 37.467L133.626 35.209C133.343 34.5033 132.354 33.9388 131.365 33.9388ZM124.3 43.2531H121.616V25.6124H124.3V43.2531ZM114.127 31.5397C115.541 31.5397 116.67 32.2453 117.377 32.9509V31.9631H119.921V42.6887C119.921 47.0635 117.377 48.8982 114.269 48.8982C111.301 48.8982 109.606 46.9224 108.899 45.3701L111.16 44.3821C111.443 45.3701 112.573 46.499 114.127 46.499C116.106 46.499 117.377 45.2289 117.377 42.9709V42.1242H117.235C116.67 42.8298 115.541 43.5354 114.127 43.5354C111.019 43.5354 108.334 40.9951 108.334 37.6081C108.334 34.221 111.16 31.5397 114.127 31.5397ZM110.877 37.6081C110.877 39.725 112.432 41.2774 114.269 41.2774C116.106 41.2774 117.519 39.725 117.519 37.6081C117.519 35.4912 116.106 33.9388 114.269 33.9388C112.432 33.9388 110.877 35.4912 110.877 37.6081ZM142.386 25.6124H148.744C151.711 25.6124 154.537 27.7292 154.537 31.1163C154.537 34.5033 151.711 36.6202 148.744 36.6202H145.07V43.2531H142.386V25.6124ZM145.07 34.221H148.885C150.722 34.221 151.853 32.5276 151.994 31.1163C151.994 29.8462 150.863 28.1526 148.885 28.1526H145.07V34.221ZM160.471 34.3622C161.177 32.5276 163.155 31.6808 165.134 31.6808C168.101 31.6808 170.503 33.3743 170.785 36.6202V43.3943H168.242V41.9831H168.101C167.394 42.8298 166.547 43.6765 164.71 43.6765C162.449 43.6765 160.33 42.1242 160.33 39.725C160.33 37.1847 162.873 35.7735 165.416 35.7735C166.547 35.7735 167.677 36.1968 168.101 36.4791V36.338C167.96 34.9267 166.688 34.0799 165.275 34.0799C164.286 34.0799 163.438 34.3622 162.873 35.3501L160.471 34.3622ZM162.732 39.725C162.732 40.854 164.004 41.2774 164.851 41.2774C166.264 41.2774 167.677 40.1484 167.96 38.4549L167.863 38.4159L167.749 38.3696C167.133 38.1185 166.574 37.8903 165.557 37.8903C164.286 37.8903 162.732 38.3138 162.732 39.725ZM176.579 39.5839H176.72L179.687 31.9631H182.513L175.307 48.616H172.622L175.307 42.6887L170.644 31.9631H173.47L176.579 39.5839ZM158.634 43.2531H155.95V25.6124H158.634V43.2531ZM18.8966 46.7811C18.3314 46.4989 18.0488 45.7932 18.0488 45.0876V44.5231V13.3341C18.0488 12.8665 18.1458 12.4958 18.2593 12.0614L18.2594 12.0611L18.2596 12.0606L18.2599 12.0594C18.2832 11.97 18.3073 11.878 18.3314 11.7818C18.4727 11.4995 18.7553 11.2173 19.0379 10.9351C25.1134 17.0035 31.0477 23.0718 36.982 29.1403C30.9087 34.7832 24.9767 40.7082 18.9035 46.7742L18.9034 46.7743L18.8966 46.7811ZM41.1998 24.614L41.1999 24.6139C41.7806 24.0495 42.356 23.4902 42.916 22.9308C35.4396 18.8448 28.1041 14.7587 20.7688 10.6727L20.7685 10.6726L20.7684 10.6725L20.7331 10.6528C20.5918 10.6528 20.5918 10.7939 20.5918 10.7939C23.4176 13.687 26.2788 16.5801 29.1399 19.4732C32.0011 22.3663 34.8623 25.2594 37.6882 28.1525C38.8236 26.9238 40.0225 25.7585 41.1998 24.614ZM20.5918 46.7813C23.4177 43.9587 26.2789 41.1362 29.1401 38.3136C32.0012 35.4912 34.8624 32.6687 37.6882 29.8462C39.1228 31.2791 40.6779 32.7121 42.3533 34.2561L42.3537 34.2564L42.7747 34.6444C35.4275 38.7372 28.0803 42.8298 20.7331 46.7813H20.5918ZM41.08 31.5393C41.9631 32.3861 42.8462 33.2328 43.7646 34.0796C45.884 32.9506 48.0034 31.8216 49.9815 30.5514C50.4053 30.4104 50.6878 30.1282 50.9702 29.8461L50.9705 29.8458C51.5357 29.1402 51.5357 28.4345 50.9705 27.7289C50.6879 27.3055 50.4054 27.0232 49.9815 26.8821C49.2752 26.4588 48.5335 26.0708 47.7919 25.6828C47.0499 25.2946 46.308 24.9064 45.6014 24.483C45.0362 24.0596 44.471 23.7773 43.9059 23.4951L38.3955 28.9991C39.3139 29.8458 40.197 30.6926 41.08 31.5393Z" fill="white"/>
</svg>