<svg width="92" height="28" viewBox="0 0 92 28" fill="none" xmlns="http://www.w3.org/2000/svg">
<path fill-rule="evenodd" clip-rule="evenodd" d="M85.2444 0.466675C85.9317 0.466675 86.4889 1.02383 86.4889 1.71112V6.37779C86.4889 7.06507 85.9317 7.62223 85.2444 7.62223C84.5572 7.62223 84 7.06507 84 6.37779V1.71112C84 1.02383 84.5572 0.466675 85.2444 0.466675Z" fill="#F72585"/>
<path fill-rule="evenodd" clip-rule="evenodd" d="M86.489 6.37781C86.489 7.06509 85.9319 7.62225 85.2446 7.62225L80.5779 7.62225C79.8906 7.62225 79.3335 7.06509 79.3335 6.37781C79.3335 5.69052 79.8906 5.13336 80.5779 5.13336L85.2446 5.13336C85.9319 5.13336 86.489 5.69052 86.489 6.37781Z" fill="#FDC500"/>
<path fill-rule="evenodd" clip-rule="evenodd" d="M85.2444 5.13336C85.9317 5.13336 86.4889 5.69052 86.4889 6.37781V11.0445C86.4889 11.7318 85.9317 12.2889 85.2444 12.2889C84.5572 12.2889 84 11.7318 84 11.0445V6.37781C84 5.69052 84.5572 5.13336 85.2444 5.13336Z" fill="#3F37C9"/>
<path fill-rule="evenodd" clip-rule="evenodd" d="M91.1555 6.37781C91.1555 7.06509 90.5984 7.62225 89.9111 7.62225L85.2444 7.62225C84.5571 7.62225 84 7.06509 84 6.37781C84 5.69052 84.5571 5.13336 85.2444 5.13336L89.9111 5.13336C90.5984 5.13336 91.1555 5.69052 91.1555 6.37781Z" fill="#7209B7"/>
<path fill-rule="evenodd" clip-rule="evenodd" d="M71.3999 25.3556C66.9326 25.3556 63.311 21.7341 63.311 17.2667C63.311 12.7993 66.9326 9.1778 71.3999 9.1778C75.8673 9.1778 79.4888 12.7993 79.4888 17.2667V23.7222C79.4888 24.6243 78.7575 25.3556 77.8555 25.3556H77.8161C76.9358 25.3556 76.2221 24.6419 76.2221 23.7616C74.8756 24.763 73.207 25.3556 71.3999 25.3556ZM71.3999 22.0889C74.0632 22.0889 76.2221 19.9299 76.2221 17.2667C76.2221 14.6034 74.0632 12.4445 71.3999 12.4445C68.7367 12.4445 66.5777 14.6034 66.5777 17.2667C66.5777 19.9299 68.7367 22.0889 71.3999 22.0889Z" fill="black"/>
<path fill-rule="evenodd" clip-rule="evenodd" d="M54.2888 25.5111C49.8215 25.5111 46.2 21.8896 46.2 17.4222C46.2 12.9548 49.8215 9.33331 54.2888 9.33331C58.7562 9.33331 62.3777 12.9548 62.3777 17.4222C62.3777 18.3672 61.6116 19.1333 60.6666 19.1333H49.779C50.4694 20.9519 52.2282 22.2444 54.2888 22.2444H58.7222C59.6242 22.2444 60.3555 22.9757 60.3555 23.8778C60.3555 24.7798 59.6242 25.5111 58.7222 25.5111H54.2888ZM54.2888 12.6C52.8726 12.6 51.599 13.2105 50.7168 14.1827C50.1314 14.8277 50.7115 15.7111 51.5825 15.7111H56.9951C57.8662 15.7111 58.4463 14.8277 57.8609 14.1827C56.9787 13.2105 55.7051 12.6 54.2888 12.6Z" fill="black"/>
<path fill-rule="evenodd" clip-rule="evenodd" d="M37.0223 9.02222C32.469 9.02222 28.7778 12.7134 28.7778 17.2667C28.7778 21.8199 32.469 25.5111 37.0223 25.5111C41.5756 25.5111 45.2667 21.8199 45.2667 17.2667V6.53333C45.2667 5.58831 44.5006 4.82222 43.5556 4.82222C42.6106 4.82222 41.8445 5.58831 41.8445 6.53333V10.5788C40.4885 9.5994 38.8228 9.02222 37.0223 9.02222ZM37.0223 12.4444C39.6855 12.4444 41.8445 14.6034 41.8445 17.2667C41.8445 19.9299 39.6855 22.0889 37.0223 22.0889C34.359 22.0889 32.2001 19.9299 32.2001 17.2667C32.2001 14.6034 34.359 12.4444 37.0223 12.4444Z" fill="black"/>
<path d="M24.4221 6.53332C24.4221 5.5883 25.1882 4.8222 26.1332 4.8222C27.0783 4.8222 27.8443 5.5883 27.8443 6.53332V23.6444C27.8443 24.5894 27.0783 25.3555 26.1332 25.3555C25.1882 25.3555 24.4221 24.5894 24.4221 23.6444V6.53332Z" fill="black"/>
<path fill-rule="evenodd" clip-rule="evenodd" d="M15.3999 25.3556C10.9326 25.3556 7.31104 21.7341 7.31104 17.2667C7.31104 12.7993 10.9326 9.1778 15.3999 9.1778C19.8673 9.1778 23.4888 12.7993 23.4888 17.2667V23.7222C23.4888 24.6243 22.7575 25.3556 21.8555 25.3556H21.8161C20.9358 25.3556 20.2221 24.6419 20.2221 23.7616C18.8756 24.763 17.207 25.3556 15.3999 25.3556ZM15.3999 22.0889C18.0632 22.0889 20.2221 19.9299 20.2221 17.2667C20.2221 14.6034 18.0632 12.4445 15.3999 12.4445C12.7367 12.4445 10.5777 14.6034 10.5777 17.2667C10.5777 19.9299 12.7367 22.0889 15.3999 22.0889Z" fill="black"/>
<path d="M5.28892 8.24443V6.53332C5.28892 5.5883 4.52283 4.8222 3.57781 4.8222C2.63279 4.8222 1.8667 5.5883 1.8667 6.53332V23.6444C1.8667 24.5894 2.63279 25.3555 3.57781 25.3555C4.52283 25.3555 5.28892 24.5894 5.28892 23.6444V11.6666H7.00003C7.94505 11.6666 8.71114 10.9006 8.71114 9.95554C8.71114 9.01052 7.94505 8.24443 7.00003 8.24443H5.28892Z" fill="black"/>
</svg>
